<svg xmlns="http://www.w3.org/2000/svg" viewBox="0 0 180 180" width="180" height="180">
  <defs>
    <linearGradient id="g" x1="0" y1="0" x2="1" y2="1">
      <stop offset="0" stop-color="#00d4ff"/>
      <stop offset="1" stop-color="#35ff6b"/>
    </linearGradient>
  </defs>
  <rect width="180" height="180" rx="36" fill="#0b1220"/>
  <rect x="10" y="10" width="160" height="160" rx="32" fill="url(#g)" opacity="0.12"/>
  <g fill="url(#g)">
    <path d="M44 56h52c14 0 26 12 26 26 0 14-12 26-26 26H44V56zm20 20v12h32c3 0 6-3 6-6s-3-6-6-6H64z"/>
    <path d="M44 126h20v-18l30 36h26L84 98l32-42H90L64 88V56H44v70z"/>
  </g>
</svg>
