<svg xmlns="http://www.w3.org/2000/svg" viewBox="0 0 128 128" width="128" height="128">
  <defs>
    <linearGradient id="g" x1="0" y1="0" x2="1" y2="1">
      <stop offset="0" stop-color="#00d4ff"/>
      <stop offset="1" stop-color="#35ff6b"/>
    </linearGradient>
    <filter id="glow" x="-50%" y="-50%" width="200%" height="200%">
      <feGaussianBlur stdDeviation="3" result="b"/>
      <feMerge>
        <feMergeNode in="b"/>
        <feMergeNode in="SourceGraphic"/>
      </feMerge>
    </filter>
  </defs>

  <rect x="8" y="8" width="112" height="112" rx="24" fill="#0b1220"/>
  <rect x="8" y="8" width="112" height="112" rx="24" fill="url(#g)" opacity="0.12"/>

  <path d="M34 40h36c10 0 18 8 18 18 0 10-8 18-18 18H34V40zm14 14v8h22c2 0 4-2 4-4s-2-4-4-4H48z" fill="url(#g)" filter="url(#glow)"/>
  <path d="M34 88h14V76l20 24h18L62 72l22-32H66L48 64V40H34v48z" fill="url(#g)" filter="url(#glow)"/>
</svg>
